<svg xmlns="http://www.w3.org/2000/svg" viewBox="0 0 296.1 270.5" enable-background="new 0 0 296.1 270.5"><style type="text/css">.st0{fill:#505CFD;}</style><g id="XMLID_2_"><path id="XMLID_3_" d="M156.3 266.2c0 1.2-.5 2.3-1.4 3.1-.9.8-2 1.2-3.2 1.2H3.6c-1.2 0-2.3-.5-3.1-1.4-.8-.9-1.3-2-1.5-3.2l3.1-97.7c.4-15.2 5.9-30 16.6-44.6.8-1 1.8-1.6 3.1-1.7 1.2-.1 2.4.3 3.4 1.1 7.4 6.8 15.5 11.9 24.4 15.5 8.9 3.6 18.2 5.4 28 5.4 9.7 0 19.1-1.8 28-5.4 8.9-3.6 17.2-8.8 24.7-15.5 1-.8 2.2-1.2 3.5-1.1 1.3.1 2.3.7 2.9 1.7 10.4 14.5 16 29.4 16.6 44.6l3 98zm-9.2-4.6l-2.8-93.1c-.4-12.1-4.4-24-12-35.6-7 5.9-14.5 10.4-22.7 13.5-6.4 2.7-13.1 4.5-20.3 5.5l9.8 75.9v.9c0 1.2-.5 2.3-1.4 3.1-.9.8-2 1.2-3.2 1.2h-34c-1.4 0-2.6-.5-3.4-1.5-.8-1-1.1-2.2-.9-3.4l9.5-76.2c-6.8-1-13.4-2.9-20-5.5-8.2-3.1-15.8-7.6-22.7-13.5-7.6 11.7-11.6 23.6-12 35.6l-2.8 93.1h138.9zM54.2 119.9c-7.5-3.1-14.1-7.6-20-13.5-5.8-5.9-10.3-12.6-13.4-20-3.1-7.4-4.6-15.2-4.6-23.4s1.5-16 4.6-23.5c3.1-7.5 7.5-14.1 13.4-20 5.8-5.8 12.5-10.3 20-13.4C61.7 3 69.5 1.5 77.7 1.5s16 1.5 23.4 4.6c7.4 3.1 14 7.5 20 13.4 5.9 5.8 10.4 12.5 13.5 20 3.1 7.5 4.6 15.3 4.6 23.5-.4 17.4-6.4 31.9-18 43.5-11.6 11.6-26.1 17.6-43.5 18-8.2 0-16.1-1.5-23.5-4.6zM40.6 26.1c-9.9 9.9-15.1 22.3-15.5 37 .4 14.7 5.6 27.1 15.5 37 9.9 9.9 22.3 15.1 37 15.5 14.7-.4 27.1-5.6 37-15.5 9.9-9.9 15.1-22.3 15.5-37-.4-14.7-5.6-27.1-15.5-37-9.9-9.9-22.3-15.1-37-15.5-14.7.4-27 5.5-37 15.5zm34 127.6l-8.9 70.4h24l-8.9-70.4h-6.2zm221.5 112.8v.3c0 1.2-.5 2.3-1.4 3.1-.9.8-2 1.2-3.2 1.2h-122c-1.2 0-2.3-.5-3.1-1.4-.8-.9-1.2-2-1.2-3.2l2.5-80.2c.4-12.9 4.9-25.3 13.5-37.2.8-1 1.9-1.6 3.2-1.7 1.3-.1 2.5.3 3.5 1.1 5.9 5.3 12.5 9.5 19.8 12.4 7.3 3 14.8 4.5 22.7 4.5 7.9 0 15.5-1.4 22.7-4.3 7.3-2.9 13.9-7.1 19.8-12.6 1.2-.8 2.5-1.2 3.8-1.2 1.3 0 2.3.6 2.9 1.8 8.6 11.9 13.2 24.3 13.8 37.2l2.7 80.2zm-9.2-4.3l-2.2-75.6c-.2-9.8-3.4-19.3-9.5-28.3-5.3 4.5-11.4 8.1-18.1 10.8-4.9 2.3-10.2 3.7-16 4.3l8 62.4c0 1.2-.5 2.3-1.4 3.2-.9.9-2 1.4-3.2 1.4h-28c-1.2 0-2.3-.5-3.2-1.5-.9-1-1.4-2.2-1.4-3.4l8-62.1c-12.5-2-23.9-7.1-34.1-15.1-5.7 9-8.8 18.4-9.2 28.3l-2.5 75.6h112.8zm-92.5-126.3c-9.6-9.6-14.6-21.7-15.1-36.3.4-14.5 5.4-26.6 15.1-36.3 9.6-9.6 21.7-14.6 36.3-15.1 14.5.4 26.6 5.4 36.3 15.1 9.6 9.6 14.6 21.7 15.1 36.3-.4 14.5-5.4 26.6-15.1 36.3-9.6 9.6-21.7 14.6-36.3 15.1-14.6-.4-26.6-5.5-36.3-15.1zm6.5-66.4c-8 8-12.2 18-12.6 30.1.4 11.9 4.6 21.8 12.6 29.8s17.9 12.2 29.8 12.6c12.1-.4 22.1-4.6 30.1-12.6s12.1-17.9 12.3-29.8c-.2-12.1-4.3-22.1-12.3-30.1s-18-12.1-30.1-12.3c-11.9.3-21.8 4.4-29.8 12.3zm20.6 162h18.1l-7.1-56.5h-3.7l-7.3 56.5z" class="st0"/></g></svg>