<svg xmlns="http://www.w3.org/2000/svg" viewBox="0 0 300 251.1" enable-background="new 0 0 40 35"><style type="text/css">.st0{fill:#505CFD;}</style><g id="XMLID_2_"><path id="XMLID_3_" d="M297.8 52c1.4 3.3 2.1 6.7 2.1 10.2v161.4c0 7.7-2.7 14.2-8.1 19.3-2.6 2.6-5.5 4.6-8.8 6-3.3 1.4-6.7 2.1-10.2 2.1H27.4c-7.5 0-14-2.6-19.3-7.9-5.4-5.2-8.1-11.7-8.1-19.5V27.4c0-7.5 2.7-13.9 8.1-19.3C13.5 2.7 19.9 0 27.4 0h85.1c7.5 0 13.9 2.7 19.2 8.1 5.3 5.4 7.9 11.8 7.9 19.3v7.7h133.3c3.5 0 6.9.7 10.2 2.1 3.3 1.4 6.2 3.4 8.8 6 2.5 2.6 4.5 5.6 5.9 8.8zM10.2 27.4v44.7c4.9-4.2 10.7-6.4 17.2-6.7h245.4c6.6.2 12.3 2.5 17.2 6.7v-9.8c-.2-4.7-2-8.7-5.3-12-3.3-3.3-7.3-4.9-12-4.9h-138c-1.4 0-2.6-.5-3.5-1.6-.9-1.1-1.4-2.3-1.4-3.7V27.4c0-4.7-1.7-8.7-5.1-12.1-3.4-3.4-7.4-5.1-12.1-5.1H27.4c-4.7 0-8.8 1.6-12.3 4.9-3.3 3.5-4.9 7.6-4.9 12.3zm279.9 65.4c-.2-4.7-2-8.7-5.3-12.1-3.3-3.4-7.3-5.1-12-5.1H27.4c-4.7 0-8.7 1.7-12.1 5.1-3.4 3.4-5.1 7.4-5.1 12.1v7h279.9v-7zm0 130.8V110.1H10.2v113.6c0 4.7 1.7 8.7 5.1 12.1 3.4 3.4 7.4 5.1 12.1 5.1h245.4c4.7 0 8.7-1.6 12-4.9 3.3-3.6 5.1-7.7 5.3-12.4z" class="st0"/></g></svg>