<svg xmlns="http://www.w3.org/2000/svg" viewBox="0 0 300 300" enable-background="new 0 0 300 300"><style type="text/css">.st0{fill:#505CFD;}</style><g id="XMLID_2_"><path id="XMLID_3_" d="M256 44c28.2 28.2 42.8 63.5 44 106-1.2 42.5-15.8 77.9-44 106-28.2 28.2-63.5 42.8-106 44-42.5-1.2-77.9-15.8-106-44-28.2-28.1-42.8-63.5-44-106 1.2-42.5 15.8-77.9 44-106C72.1 15.8 107.5 1.2 150 0c42.5 1.2 77.9 15.8 106 44zm-7 205.2c26.5-26.4 40.2-59.5 41.2-99.2-.9-39.7-14.7-72.8-41.2-99.4-26.5-26.5-59.5-40.2-99-41.2-39.7.9-72.8 14.7-99.4 41.4C24.1 77.5 10.4 110.5 9.5 150c.9 39.5 14.7 72.5 41.2 99 26.5 26.5 59.6 40.2 99.4 41.2 39.4-.9 72.4-14.6 98.9-41zM233.1 66.8c22.2 22.1 33.8 49.8 34.7 83.2-.9 33.2-12.5 60.9-34.7 83.1-22.2 22.2-49.9 33.8-83.1 34.7-33.2-.9-60.9-12.5-83.1-34.7-22.2-22.2-33.8-49.9-34.7-83.1.9-33.4 12.5-61.2 34.7-83.2 22.2-22.1 49.9-33.6 83.1-34.5 33.2.9 60.9 12.4 83.1 34.5zm-6.7 159.6c20.3-20.3 30.8-45.8 31.5-76.4-.7-30.6-11.2-56.1-31.5-76.6-20.3-20.4-45.8-31-76.4-31.7-30.6.7-56.1 11.3-76.6 31.7-20.4 20.4-31 46-31.7 76.6.7 30.6 11.3 56.1 31.7 76.4 20.4 20.3 46 30.8 76.6 31.5 30.6-.7 56.1-11.2 76.4-31.5zM164 139.3c2.3 2.9 3.5 6.5 3.5 10.7 0 4.9-1.6 9-4.9 12.3-3.3 3.3-7.5 5-12.6 5.3-3.7-.2-7-1.3-9.8-3.2l-34.3 23.5c-.7.5-1.6.7-2.8.7-1.6 0-2.9-.6-3.9-1.9-.9-1.3-1.3-2.6-1.1-3.9.2-1.3.9-2.3 2.1-3l33.6-22.8c-1.2-2.1-1.8-4.4-1.8-7 0-4.2 1.2-7.8 3.7-10.7 2.5-2.9 5.5-5 9.3-6.1V62.7c0-1.2.5-2.3 1.4-3.3.9-1.1 2-1.6 3.3-1.6 1.3 0 2.5.5 3.5 1.6 1.1 1.1 1.6 2.2 1.6 3.3v70.4c3.8 1.3 6.9 3.3 9.2 6.2zm-8.4 16.3c1.6-1.6 2.5-3.6 2.5-5.8 0-2.2-.8-4.1-2.5-5.6-1.6-1.5-3.6-2.3-5.8-2.3-2.2 0-4.1.8-5.6 2.3-1.5 1.5-2.3 3.4-2.3 5.6 0 2.2.8 4.2 2.3 5.8 1.5 1.6 3.4 2.5 5.8 2.5 2.1 0 4-.9 5.6-2.5z" class="st0"/></g></svg>