<svg xmlns="http://www.w3.org/2000/svg" viewBox="0 0 293.4 232.3" enable-background="new 0 0 293.4 232.3"><style type="text/css">.st0{fill:#505CFD;}</style><g id="XMLID_3_"><path id="XMLID_4_" d="M293.4 61.4c0 1.2-.4 2.2-1.2 3l-21.3 21.3c-.8.8-1.7 1.2-2.8 1.2-1.1 0-2-.4-2.8-1.2l-1.5-1.2-3.8 3.8c2.8 12.2 1.9 23-2.5 32.2-4.4 9.3-14.1 21.2-29.1 35.8 1 5.9-.5 11-4.4 15.4-2 2-4.2 3.4-6.8 4.3-2.6.9-5.2 1.1-8 .7 0 2.2-.4 4.4-1.2 6.7-.8 2.3-2.1 4.2-3.8 5.9-1.8 1.7-3.7 3-5.9 4s-4.5 1.4-7.1 1.2l.3 2.1c-.2 4.9-2 9.1-5.3 12.4-4.1 3.9-9 5.5-14.5 4.7 0 4.9-1.7 9.2-5.2 12.7-3.5 3.6-7.5 5.3-12.3 5.3-4.7 0-8.8-1.8-12.1-5.3l-2.1-1.8-2.7 2.7c-3.4 3.4-7.4 5-12.3 5-4.8 0-8.9-1.7-12.3-5-3.4-3.4-5-7.5-5-12.4l.3-1.5-1.5.3c-4.9 0-9.1-1.7-12.4-5-3.4-3.4-5-7.5-5-12.4l.3-1.5-1.5.3c-4.9 0-9.1-1.7-12.4-5-3.4-3.4-5-7.5-5-12.4l.3-1.5-1.5.3c-4.9 0-9.1-1.7-12.4-5.2-3.4-3.4-5-7.5-5-12.1s1.7-8.7 5-12.3l3-2.7C49.4 134 42.3 124.5 38.3 116c-3.9-8.6-5.3-19.9-4.1-33.9L30.1 78l-1.5 1.2c-.8.8-1.7 1.2-2.8 1.2-1.1 0-2-.4-2.8-1.2L1.5 57.8C.7 57 .3 56.1.3 55c0-1.1.4-2.1 1.2-3.1L52.1 1.3c2-1.8 3.9-1.8 5.9 0l21.3 21.3c.8.8 1.2 1.8 1.2 3s-.4 2.2-1.2 3L77.8 30l3 3c3-2 7.4-4.2 13.3-6.7s12.6-3.7 20-3.8c7.4-.1 14 1.7 20 5.5l14.8 9.5c2.6-.8 5.3-1.8 8.3-3 8.7-3 17-4.4 24.8-4.3 7.9.1 14.4 1.2 19.7 3.3 5.2 2.1 9.1 4.1 11.7 6.1l3-3-1.8-1.5c-.8-1-1.2-2-1.2-3.1s.4-2 1.2-2.8l21.3-21.3c1-1 2-1.5 3.1-1.5s2 .5 2.8 1.5l50.6 50.6c.6.7 1 1.7 1 2.9zm-223-35.8L55 9.9l-45 45 15.7 15.7 44.7-45zm150.2 133.8c0-2.5-.9-4.6-2.7-6.4l-70.4-70.4-3-3.3c-.8-.8-1.4-1.5-1.8-2.1-1.2 0-2.5.4-3.8 1.2-9.1 3.9-16.6 6.9-22.5 8.7-5.9 1.9-10.8 2.8-14.8 2.8-6.7 0-11.3-2.7-13.9-8-1.8-3.6-1.9-7.3-.3-11.2 2-5.1 7.2-10.1 15.8-14.8 8.6-4.7 20.5-9.8 35.6-15.1l-9.2-5.9c-4.7-3-10.1-4.4-16-4.4-8.5.4-15.7 2.2-21.7 5.5s-9.3 5.2-9.9 5.8c-.6.6-1.4.8-2.4.7-1-.1-1.9-.5-2.7-1.3l-5.3-5.3L35.8 72l5.3 5.6c.8 1 1.2 2.1 1.2 3.3-1.2 12.8-.1 23.1 3.3 30.9 3.3 7.8 10 16.6 19.8 26.5l15.1-15.1c3.9-3.7 8.4-5.8 13.3-6.2 4.9-.4 9.3 1.2 13 4.9 3.7 3.7 5.2 8.2 4.4 13.8v.3c2.6-.4 5.1-.2 7.5.4 2.5.7 4.7 2 6.7 4 3 3 4.4 6.7 4.4 11.2 0 1.2-.2 2.2-.6 3 2.8-.4 5.4-.2 7.8.4 2.5.7 4.7 2 6.8 4 2.1 2 3.4 4.2 4 6.7.6 2.5.7 5 .3 7.5 5.5-1 10.3.4 14.2 4.1 3.2 3.4 4.7 7 4.7 10.9 0 3.9-1.1 7.7-3.3 11.2l3.6 3.6c2 1.8 4.2 2.7 6.7 2.7s4.6-.9 6.4-2.7c1.8-1.8 2.7-3.9 2.7-6.5s-.9-4.6-2.7-6.2l-26.6-26.9c-.8-.8-1.2-1.7-1.2-2.8 0-1.1.4-2.1 1.2-3 .8-.9 1.7-1.3 2.8-1.3 1.1 0 2 .5 2.8 1.5l26 25.7c1.8 1.8 3.8 2.7 6.2 2.7 2.4 0 4.5-.9 6.4-2.7 1.9-1.8 2.8-3.9 2.8-6.4 0-2.5-.8-4.6-2.4-6.4L173.6 146c-.8-.8-1.2-1.7-1.2-2.8 0-1.1.4-2 1.2-2.8 2-1.8 3.9-1.8 5.9 0l24.8 24.8c.2.4.4.6.6.6 2 1.8 4.2 2.7 6.7 2.7s4.6-.9 6.4-2.7c1.8-1.8 2.6-3.9 2.6-6.4zm-145.2 6.1l23.7-23.7h.3c2-2.2 3.2-4.6 3.7-7.4.5-2.8-.2-5.1-2.2-7.1-1.8-1.6-3.6-2.4-5.6-2.4-1.6 0-3.2.3-4.7 1-1.6.7-3 1.7-4.1 3.1l-23.7 23.7c-1.8 1.8-2.7 3.9-2.7 6.4s.9 4.6 2.8 6.4c1.9 1.8 4 2.7 6.4 2.7 2.4 0 4.4-.8 6.2-2.4v-.3zm18.7 18.6l23.7-23.7h.3c1.2-1.2 2.1-2.6 2.8-4.1.7-1.6 1-3.2 1-4.7 0-2.2-.8-4-2.5-5.6-1.7-1.6-3.5-2.4-5.5-2.4-3.2 0-6 1.3-8.6 3.8l-.3.3-23.7 23.7v.3c-1.8 1.6-2.7 3.6-2.7 6.1 0 2.5.9 4.6 2.7 6.4 1.8 1.8 3.8 2.7 6.2 2.7 2.4 0 4.5-.8 6.5-2.4v-.4zm156.6-68.9c3.1-7.9 3.3-17.1.7-27.5-.2-1.4.2-2.7 1.2-3.8l5.3-5.3-36.1-36.1-5.3 5.3c-2 1.8-3.9 1.8-5.9 0-.2-.6-2.7-2.2-7.5-4.9s-11.9-4.2-21.1-4.6c-7.1 0-14.5 1.3-22.2 3.8-12.8 4.3-26 9.3-39.5 14.9S98.4 68.3 95 74c-.6 1.4-.5 2.9.3 4.4.4 1 1 1.8 1.9 2.4.9.6 2.4.9 4.6.9 3.2 0 7.5-.9 13-2.7 5.5-1.8 12.5-4.5 21-8.3 5.5-2.6 10.4-3.8 14.5-3.8 2.6 0 4.4.5 5.6 1.5 1.2 1 1.9 1.9 2.1 2.7.6 1.6.6 3.1.1 4.6-.5 1.5-1.1 2.7-1.9 3.7l26 25.7c12.6 12.6 26.9 26.9 42.9 42.9 14-14 22.5-24.9 25.6-32.8zm-138 87.5l23.7-23.7c.2 0 .3-.1.3-.3 1.8-1.8 3-4 3.6-6.7.6-2.7-.1-5.2-2.1-7.5-1.8-1.6-3.7-2.4-5.6-2.4-3.2 0-6 1.3-8.6 3.8l-.3.3L100 190c-1.8 1.8-2.7 3.9-2.7 6.4s.9 4.6 2.7 6.4c1.8 1.8 3.9 2.7 6.4 2.7 2.5 0 4.6-.8 6.4-2.4v-.4zm12.4 21.3c2.4 0 4.4-.9 6.2-2.7l23.7-23.7c1.8-1.8 3.1-4 3.8-6.8.8-2.8.1-5.3-2.1-7.7-1.8-1.6-3.7-2.4-5.6-2.4-3.2 0-6 1.3-8.6 3.8-.2 0-.3.1-.3.3l-23.7 23.7c-1.8 1.8-2.7 3.9-2.7 6.4 0 2.5.9 4.6 2.7 6.4 2.1 1.8 4.2 2.7 6.6 2.7zm38.2-9.6c0-2.5-.8-4.6-2.4-6.4l-2.4-2.1-12.7 12.7 1.8 2.1c2 1.8 4.2 2.6 6.7 2.5 2.5-.1 4.6-.9 6.4-2.5 1.7-1.7 2.6-3.8 2.6-6.3zm120.3-153l-45-45-15.4 15.7L268 76.8l15.6-15.4z" class="st0"/></g></svg>