<svg xmlns="http://www.w3.org/2000/svg" viewBox="0 0 293.7 229" enable-background="new 0 0 293.7 229"><style type="text/css">.st0{fill:#505CFD;}</style><g id="XMLID_2_"><path id="XMLID_3_" d="M293.7 224.8c0 1.2-.4 2.2-1.3 3-.9.8-1.8 1.2-2.8 1.2H5.2c-1.2 0-2.2-.4-3-1.3-.8-.9-1.2-1.8-1.2-2.8l1.5-52.6c.2-8.6 3.3-16.8 9.3-24.8.8-1 1.8-1.5 3-1.6s2.3.3 3.3 1c3.8 3.4 8 6 12.5 7.9 4.6 1.9 9.4 2.8 14.3 2.8 5 0 9.8-.9 14.3-2.8 4.6-1.9 8.8-4.5 12.5-7.9 1-.8 2.1-1.1 3.3-1 1.2.1 2.2.6 3 1.6 1.8 2.4 3.4 5 4.8 7.8l.3-12.8c.6-13.1 5.3-25.8 14-37.9.8-1 1.8-1.5 3-1.6 1.2-.1 2.2.3 3 1 6.2 5.8 13 10.2 20.6 13.1 7.6 3 15.4 4.5 23.6 4.5 8.2 0 15.9-1.5 23.3-4.5s14.2-7.4 20.6-13.1c1-.8 2.1-1.1 3.3-1 1.2.1 2.2.6 3 1.6 8.8 12.3 13.3 25 13.7 37.9l.6 12.8c1.2-2.8 2.8-5.4 4.8-7.8.8-1 1.7-1.5 2.8-1.6 1.1-.1 2.1.3 3.1 1 7.8 7 16.8 10.6 27.2 10.8 10-.2 18.9-3.8 26.9-10.8 1-.8 2.1-1.1 3.3-1 1.2.1 2.2.6 3 1.6 5.8 8.2 8.8 16.4 9 24.8l1.8 52.3v.2zm-213.3-4.2l-1.5-48.1c-.2-5.6-1.9-11.1-5.1-16.7-6.4 4.8-13.2 7.9-20.6 9.3l4.8 38.8v.9c0 1-.4 1.9-1.2 2.8-.8.9-1.7 1.3-2.7 1.3H35.6c-1.2 0-2.2-.5-3-1.5-.8-1-1.2-2.1-1.2-3.3l5.1-39.1c-7.4-1.4-14.2-4.5-20.6-9.3-3.2 5.6-4.9 11.2-5.1 16.7l-1.5 48.1h71.1zm-60-80.3c-6.6-6.6-10-14.7-10.2-24.5.2-9.8 3.6-17.9 10.2-24.5 6.6-6.6 14.7-10 24.5-10.2 9.8.2 17.9 3.6 24.5 10.2 6.6 6.6 10 14.7 10.2 24.5-.2 9.8-3.6 17.9-10.2 24.5-6.6 6.6-14.7 10-24.5 10.2-9.8-.3-17.9-3.6-24.5-10.2zm5.7-43c-5 5-7.5 11.2-7.5 18.7s2.5 13.7 7.5 18.7 11.2 7.5 18.8 7.5c7.6 0 13.8-2.5 18.7-7.5 4.9-5 7.3-11.2 7.3-18.7s-2.4-13.7-7.3-18.7-11.1-7.6-18.7-7.8c-7.6.2-13.8 2.8-18.8 7.8zm14.3 103.3h9l-4.5-34.3-4.5 34.3zm165.2 20l-2.4-77.9c-.2-10.2-3.5-20-9.9-29.6-6 4.8-12.2 8.5-18.8 11.1-5.4 2.4-11 4-16.7 4.8l8.1 64.2c-.2 2.6-1.6 4-4.2 4.2h-29c-1.2 0-2.2-.5-3-1.5-.8-1-1.1-2.1-.9-3.3l8.1-63.6c-5.8-.8-11.3-2.4-16.7-4.8-6.8-2.6-13-6.3-18.8-11.1-6.2 9.6-9.5 19.4-9.9 29.6l-2.4 77.9h116.5zM110.3 90.4c-9.8-9.8-14.8-22-15.2-36.7 0-7.2 1.3-13.9 3.9-20.2 2.6-6.3 6.4-11.9 11.3-16.9 5-5 10.6-8.8 17-11.3 6.4-2.6 13-3.9 20-3.9 14.7.4 27 5.5 36.7 15.2 9.8 9.8 14.8 22.1 15.2 37-.4 14.7-5.5 27-15.2 36.7-9.8 9.8-22 14.8-36.7 15.2-14.9-.3-27.2-5.3-37-15.1zm6.1-67.6c-8.3 8.3-12.6 18.6-13 30.9.4 12.3 4.7 22.7 13 30.9 8.3 8.3 18.6 12.6 30.9 13 12.3-.4 22.6-4.7 30.9-13 8.3-8.3 12.6-18.6 13-30.9-.4-12.3-4.7-22.6-13-30.9-8.3-8.3-18.6-12.6-30.9-13-12.3.4-22.6 4.7-30.9 13zM137.5 189h19.4l-7.5-58.5h-4.5l-7.4 58.5zM285 220.6l-1.5-48.1c0-5.6-1.7-11.1-5.1-16.7-6.2 4.8-13 7.9-20.6 9.3l5.1 38.8v.9c0 1-.4 1.9-1.2 2.8-.8.9-1.8 1.3-3 1.3h-18.2c-1.2 0-2.2-.5-3-1.5-.8-1-1.2-2.1-1.2-3.3l5.1-39.1c-7.6-1.4-14.4-4.5-20.6-9.3-3.4 5.6-5.1 11.2-5.1 16.7l-1.5 48.1H285zm-59.9-80.3c-6.7-6.6-10.1-14.7-10.3-24.5.2-9.8 3.6-17.9 10.3-24.5 6.7-6.6 14.9-10 24.6-10.2 9.8.2 17.9 3.6 24.5 10.2 6.6 6.6 10 14.7 10.2 24.5-.2 9.8-3.6 17.9-10.2 24.5s-14.7 10-24.5 10.2c-9.7-.3-17.9-3.6-24.6-10.2zm5.9-43c-5 5-7.5 11.2-7.5 18.7s2.5 13.7 7.5 18.7 11.2 7.5 18.7 7.5 13.7-2.5 18.7-7.5 7.5-11.2 7.5-18.7-2.5-13.7-7.5-18.7-11.2-7.6-18.5-7.8c-7.7.2-14 2.8-18.9 7.8zm14.3 103.3h9l-4.5-34.3h-.3l-4.2 34.3z" class="st0"/></g></svg>