<svg xmlns="http://www.w3.org/2000/svg" viewBox="0 0 293.4 295.5" enable-background="new 0 0 293.4 295.5"><style type="text/css">.st0{fill:#505CFD;}</style><g id="XMLID_3_"><path id="XMLID_4_" d="M292 59.8l-35.5 35.5c5.1 9.6 9.2 19.7 12.1 30.3 3 10.7 4.5 21.8 4.5 33.5-1.1 38.5-14.4 70.6-40.1 96.3-25.7 25.7-57.9 39-96.6 40.1-38.5-1.1-70.6-14.4-96.3-39.9C14.4 230 1.1 197.9 0 159.1c1.1-38.8 14.4-71 40.1-96.6 25.7-25.7 57.8-39 96.3-40.1 11.3 0 22.1 1.4 32.6 4.3 10.4 2.9 20.3 6.8 29.7 11.7l37.1-37.1c1.3-1.3 2.8-1.6 4.5-1.1 1.7.5 2.8 1.7 3.2 3.4l7 29.1 1 .6 10.9 10.5 27.8 8.3c1.5.4 2.6 1.5 3.2 3.2.3 1.7-.2 3.2-1.4 4.5zm-65.5 189.3c24.1-24 36.5-53.9 37.4-89.9-.2-21.3-5.1-40.6-14.7-57.8l-1 .6-28.4-8.3-3.5 3.5c6.8 8.7 12.2 18.3 16.1 28.6 3.9 10.3 5.9 21.4 5.9 33.1-.9 28.7-10.9 52.8-30 72-19.2 19.3-43.1 29.2-71.9 29.9-28.7-.6-52.7-10.6-71.9-29.9-19.2-19.3-29.1-43.3-29.7-72 .6-28.7 10.5-52.7 29.7-71.9 19.2-19.2 43.1-29.1 71.9-29.7 11.9 0 23.1 2 33.5 5.9 10.4 3.9 20 9.3 28.7 16.1l2.6-2.2-7.3-30.7v-.3c-17.2-9.4-36.4-14.2-57.5-14.4-36 .9-66 13.3-90.1 37.4-24 24-36.5 54.1-37.4 90.1.8 36 13.3 66 37.4 89.9 24.1 24 54.1 36.4 90.1 37.2 36-.9 66-13.3 90.1-37.2zM192.3 86c-7.9-6.2-16.5-11-25.9-14.4-9.4-3.4-19.4-5.1-30-5.1-26 .6-47.8 9.7-65.3 27.2-17.6 17.5-26.7 39.2-27.3 65.2.6 26.2 9.7 48 27.2 65.5s39.3 26.5 65.5 27.2c26.2-.6 48-9.7 65.5-27.2s26.5-39.3 27.2-65.5c0-10.4-1.7-20.3-5.1-29.5-3.4-9.3-8.1-17.8-14.1-25.7l-18.2 18.2c7.7 10.7 11.6 23.1 11.8 37.4-.4 19-7 34.7-19.6 47.3-12.7 12.6-28.5 19.1-47.4 19.5-19-.4-34.7-6.9-47.3-19.5-12.6-12.6-19.1-28.3-19.5-47.3.4-19 6.9-34.8 19.5-47.4 12.6-12.7 28.3-19.2 47.3-19.6 14.3.2 26.8 4.3 37.7 12.1l18-18.4zm-24.9 24.9c-4.5-3-9.3-5.3-14.5-7-5.2-1.7-10.7-2.6-16.5-2.6-16.2.4-29.8 6.1-40.7 17.1-11 11-16.7 24.5-17.1 40.7.4 16.2 6.1 29.8 17.1 40.7 11 11 24.5 16.7 40.7 17.1 16.4-.4 30-6.1 40.9-17.1 10.9-11 16.5-24.5 16.9-40.7-.2-11.7-3.3-21.9-9.3-30.7l-19.2 19.2c1.7 3.4 2.7 7.2 2.9 11.5-.2 8.9-3.4 16.5-9.4 22.5-6.1 6.1-13.7 9.2-22.8 9.4-8.9-.2-16.5-3.4-22.5-9.4-6.1-6.1-9.2-13.6-9.4-22.5.2-9.2 3.4-16.8 9.4-22.8 6.1-6.1 13.6-9.2 22.5-9.4 4.5.2 8.5 1.2 12.1 2.9l18.9-18.9zm-39 38.7l12.8-12.8c-1.5-.4-3.1-.6-4.8-.6-6.4.2-11.8 2.5-16.1 6.7-4.4 4.3-6.5 9.6-6.5 16.1 0 6.5 2.2 11.9 6.5 16.3 4.4 4.4 9.8 6.5 16.3 6.5s11.9-2.2 16.1-6.5c4.3-4.4 6.5-9.7 6.7-16.1 0-1.7-.2-3.2-.6-4.5L146 167.1c-.6 1.1-1.6 1.6-2.9 1.6-1.3 0-2.5-.5-3.5-1.6l-11.2-10.9c-1.5-2.3-1.5-4.5 0-6.6zM248.2 42.9L138.3 152.8l4.5 4.8L253 47.7l-4.8-4.8zm-44.7 3.8l4.8 21.1 33.2-33.2-5.1-21.1-32.9 33.2zm76.6 12.1L261 53.1l-33.2 33.2 18.8 5.7 33.5-33.2z" class="st0"/></g></svg>