<svg xmlns="http://www.w3.org/2000/svg" viewBox="0 0 153.9 263" enable-background="new 0 0 153.9 263"><style type="text/css">.st0{fill:#505CFD;}</style><g id="XMLID_2_"><path id="XMLID_3_" d="M153.9 258.5c0 1.4-.5 2.5-1.4 3.3-.9.8-2 1.2-3.2 1.2H4.5c-1.2 0-2.3-.5-3.2-1.4-.9-.9-1.4-2-1.4-3.2l3-95.6c.4-15 5.8-29.6 16.2-43.6.8-1 1.8-1.6 3-1.7 1.2-.1 2.3.3 3.3 1.1 7.2 6.6 15.2 11.7 23.9 15.2s17.8 5.3 27.4 5.3c9.5 0 18.6-1.8 27.4-5.3 8.7-3.5 16.8-8.6 24.2-15.2 1-.8 2.1-1.1 3.5-1.1 1.3.1 2.3.7 2.9 1.7 10.2 14.2 15.6 28.8 16.2 43.6l3 95.3v.4zm-9-4.2l-2.7-91.1c-.4-12-4.3-23.6-11.7-34.9-7 5.6-14.4 10-22.2 13.2-6.2 2.6-12.8 4.4-19.8 5.4l9.6 74.9c0 1.2-.4 2.3-1.4 3.2-.9.9-2 1.4-3.2 1.4H60.1c-1.4 0-2.5-.5-3.3-1.5-.8-1-1.1-2.1-.9-3.3l9.3-74.6c-6.6-1-13.1-2.8-19.5-5.4-8.2-3.2-15.6-7.6-22.2-13.2-7.4 11.2-11.3 22.8-11.7 34.9l-2.8 91h135.9zM53.8 115.7c-7.2-3-13.7-7.4-19.4-13.2-5.7-5.8-10-12.3-13.1-19.5-3-7.2-4.5-14.9-4.5-23s1.5-15.8 4.5-23c3-7.2 7.4-13.7 13.1-19.4 5.7-5.7 12.2-10.1 19.4-13.1C61 1.5 68.7 0 76.8 0s15.8 1.5 23 4.5c7.2 3 13.7 7.4 19.5 13.1 5.8 5.7 10.2 12.2 13.2 19.4 3 7.2 4.5 14.9 4.5 23.1-.4 17-6.3 31.2-17.6 42.5C108.2 114 94 119.8 77 120.2c-8.3 0-16-1.5-23.2-4.5zM40.7 23.9C31 33.6 25.9 45.7 25.6 60.1c.4 14.4 5.5 26.5 15.2 36.2 9.7 9.7 21.8 14.8 36.2 15.2 14.4-.4 26.5-5.5 36.2-15.2 9.7-9.7 14.8-21.8 15.2-36.2-.4-14.4-5.5-26.5-15.2-36.2C103.5 14.2 91.4 9.1 77 8.7c-14.5.4-26.5 5.5-36.3 15.2zM74 148.8l-8.7 68.8h23.4L80 148.8h-6z" class="st0"/></g></svg>