<svg xmlns="http://www.w3.org/2000/svg" viewBox="0 0 293.4 300" enable-background="new 0 0 293.4 300"><style type="text/css">.st0{fill:#505CFD;}</style><g id="XMLID_2_"><path id="XMLID_3_" d="M41.4 143.6c.9.9 1.4 2 1.4 3.3s-.5 2.3-1.4 3.1c-.9.8-1.9 1.3-3 1.3H4.7c-1.3 0-2.4-.4-3.3-1.3-.9-.8-1.4-1.9-1.4-3.1s.5-2.4 1.4-3.3c.9-.9 2-1.4 3.3-1.4h33.6c1.1-.1 2.1.4 3.1 1.4zm25.3-70.3L43.1 49.4c-.8-.8-1.3-1.8-1.3-3s.4-2.3 1.3-3.3c.8-1 1.8-1.6 3-1.6 1.1 0 2.2.5 3.3 1.6L73.3 67c.8.8 1.3 1.8 1.3 3s-.5 2.2-1.4 3.1c-.9.9-1.9 1.4-3 1.4-1.3 0-2.5-.4-3.5-1.2zm140.4 11c16 16.1 24.4 36.3 25 60.4 0 15.3-3.6 29.3-10.8 42-7.2 12.7-17.4 23-30.3 31-3.4 1.9-5.6 3.6-6.6 5.2-1.1 1.6-1.6 4.2-1.6 8v17.3c0 1.3-.5 2.3-1.4 3.1-.9.8-2 1.3-3.3 1.3h-62.6c-1.3 0-2.4-.4-3.3-1.3-.9-.8-1.4-1.9-1.4-3.1v-17.3c0-3.8-.6-6.4-1.7-8-1.2-1.6-2.9-3-5.2-4.2-.8-.6-1.9-1.3-3.1-1.9-12.4-8-22-18.2-28.8-30.8-6.8-12.6-10.3-26.3-10.5-41.2.6-24.1 9-44.2 25.2-60.4 16.1-16.1 36.3-24.5 60.4-25.2 23.9.5 43.9 8.9 60 25.1zm6.3 97.8c6.4-11.3 9.6-23.8 9.6-37.4-.6-21.6-8.1-39.6-22.3-53.9-14.3-14.4-32.2-21.9-53.8-22.5-21.6.6-39.6 8.1-53.9 22.5-14.4 14.4-21.9 32.3-22.5 53.9 0 13.2 3.1 25.4 9.3 36.6 6.2 11.2 14.8 20.5 25.9 27.8 1.3.6 2.3 1.3 3.1 1.9 2.7 1.5 5.2 3.6 7.4 6.3 2.2 2.7 3.4 7.2 3.6 13.5v12.9h53.8v-12.9c0-6.3 1.1-10.8 3.5-13.5 2.3-2.7 5.3-5.1 9.1-7.2 11.7-7.4 20.8-16.7 27.2-28zm-15.3-90l10.1 10.4c1 .8 1.6 1.9 1.6 3.1s-.5 2.3-1.6 3.1l-4.1 4.1c1 1.9 1.9 3.8 2.5 5.7h5.7c1.3 0 2.3.5 3.1 1.4.8.9 1.3 2 1.3 3.3v14.5c-.2 2.7-1.7 4.2-4.4 4.4h-5.7c-.6 1.9-1.5 3.8-2.5 5.7l4.1 4.1c1.9 2.1 1.9 4.3 0 6.6l-10.1 10.1c-2.1 1.9-4.3 1.9-6.6 0l-4.1-4.1c-1.9.8-3.8 1.6-5.7 2.2v6c-.2 2.7-1.7 4.2-4.4 4.4h-14.5c-1.3 0-2.4-.4-3.3-1.3-.9-.8-1.4-1.9-1.4-3.1v-6c-1.9-.6-3.7-1.4-5.3-2.2l-4.4 4.1c-.8.8-1.8 1.3-3 1.3s-2.3-.4-3.3-1.3l-10.4-10.1-.6-1.9c0 1.1-.4 2-1.3 2.8l-1.3 1.3.3.6h1.9c1.3 0 2.3.5 3.1 1.4.8.9 1.3 2 1.3 3.3v7.9c0 1.3-.4 2.4-1.3 3.3-.8.9-1.9 1.4-3.1 1.4h-1.9c0 .2-.1.4-.3.6l1.3 1.3c1 1.1 1.6 2.2 1.6 3.3 0 1.2-.5 2.2-1.6 3l-5.7 6c-.6.6-1.7 1.1-3.1 1.3-1.3-.2-2.3-.6-3.1-1.3l-1.3-1.3c-.2 0-.5.1-.9.3v1.6c0 1.3-.4 2.4-1.3 3.3-.8.9-1.9 1.4-3.1 1.4h-8.2c-1.3 0-2.3-.5-3.1-1.4-.8-.9-1.3-2-1.3-3.3v-1.6c-.2-.2-.4-.3-.6-.3l-1.3 1.3c-1.1.6-2.1 1.1-3.1 1.3-1.3-.2-2.4-.6-3.5-1.3l-5.7-5.7c-1.5-2.3-1.5-4.5 0-6.6l1.3-1.3c0-.2-.1-.4-.3-.6H84c-1.3 0-2.4-.5-3.3-1.4-.9-.9-1.4-2-1.4-3.3V166c0-1.3.5-2.4 1.4-3.3.9-.9 2-1.4 3.3-1.4h1.6c.2 0 .3-.2.3-.6l-1.3-1.3c-.8-.8-1.2-1.9-1.1-3.3.1-1.4.5-2.4 1.1-3l5.7-5.7c2.3-1.9 4.5-1.9 6.6 0l1.3 1.3c.2-.2.4-.3.6-.3v-1.9c0-1.3.4-2.4 1.3-3.3.8-.9 1.9-1.4 3.1-1.4h8.2c1.3 0 2.3.5 3.1 1.4.8.9 1.3 2 1.3 3.3v1.9c.4 0 .7.1.9.3l1.3-1.6c1-.8 2.1-1.3 3.3-1.3 1.2 0 2.1.4 3 1.3l5.7 6c.4.4.7.9.9 1.6 0-1 .3-2 .9-2.8l4.4-4.1c-1.1-1.9-1.9-3.8-2.5-5.7H128c-1.3 0-2.4-.4-3.3-1.3-.9-.8-1.4-1.9-1.4-3.1v-14.5c0-1.3.5-2.4 1.4-3.3.9-.9 2-1.4 3.3-1.4h5.7c.6-1.9 1.5-3.8 2.5-5.7l-4.4-4.1c-.8-.8-1.3-1.8-1.3-3 0-1.1.4-2.2 1.3-3.3L142.2 92c1-.8 2.1-1.3 3.3-1.3 1.1 0 2.1.4 3 1.3l4.1 4.1c1.9-.8 3.8-1.6 5.7-2.2v-5.7c0-1.3.5-2.4 1.4-3.3s2-1.4 3.3-1.4h14.5c1.3 0 2.3.5 3.1 1.4.8.9 1.3 2 1.3 3.3V94c1.9.6 3.8 1.4 5.7 2.2l4.1-4.1c2.1-1.6 4.3-1.6 6.4 0zm-74.5 78c-1-.8-1.8-1.9-2.2-3.1l-1.9-4.7c-.8-1-1.1-2.3-.6-3.8-1.3.4-2.6.2-3.9-.6-1.4-.8-2.8-1.4-4.2-1.7-1.5-.3-2.6-1.1-3.5-2.4-.6 1.3-1.7 2-3.1 2.2-1.5.2-2.9.8-4.2 1.7-1.4.9-2.7 1.2-3.9.8.2 1.3-.1 2.6-.8 3.9-.7 1.4-1.3 2.8-1.7 4.2-.4 1.5-1.3 2.6-2.5 3.5 1.3.6 2.1 1.6 2.5 2.8.4 1.7 1 3.2 1.7 4.6.7 1.4 1 2.7.8 3.9l1.3-.3c1 0 1.9.3 2.5.9 1.3.8 2.8 1.5 4.7 1.9 1.3.4 2.2 1.3 2.8 2.5.8-1.3 2-2.1 3.5-2.5 1.5-.4 2.9-1 4.4-1.9 1-.8 2.3-1 3.8-.6-.4-1.3-.3-2.6.5-3.9.7-1.4 1.4-2.9 2-4.6.2-1.4.9-2.4 2-2.8zm-8-8.5c2.2 2.3 3.3 5.1 3.3 8.3 0 3.3-1.2 6-3.5 8.3-2.3 2.3-5 3.5-8.2 3.5-3.1 0-5.9-1.1-8.2-3.5-2.3-2.3-3.5-5.1-3.5-8.3 0-3.2 1.2-6 3.5-8.3 2.3-2.3 5-3.5 8.2-3.5 3.4.1 6.2 1.2 8.4 3.5zm65.7 95.3c.9.8 1.4 1.9 1.4 3.1v5c0 6.3-2.3 11.7-6.9 16.4-3.1 3.1-7 5.2-11.6 6.3-1.3 3.8-3.5 6.8-6.6 9-3.1 2.2-6.8 3.3-10.8 3.3-4.1 0-7.7-1.1-10.9-3.3-3.1-2.2-5.3-5.2-6.6-9-4.4-1.1-8.3-3.1-11.6-6.3-4.4-4.6-6.7-10.1-6.9-16.4v-5c0-1.3.5-2.3 1.4-3.1.9-.8 2-1.3 3.3-1.3H178c1.2.1 2.3.5 3.3 1.3zm-7.7 7.9h-53.8v.3c.2 3.8 1.6 7.1 4.1 10.1 1.7 1.5 3.3 2.5 5 3 1.7.5 3.1.8 4.2.8s2.1.4 2.8 1.1c.7.7 1.2 1.6 1.4 2.7.4 2.5 1.5 4.6 3.1 6.1 1.7 1.6 3.7 2.4 6.1 2.4 2.4 0 4.4-.8 6.1-2.4 1.7-1.6 2.7-3.6 3.1-6.1.2-1.1.7-1.9 1.6-2.7.8-.7 1.8-1.1 2.8-1.1 2.7.2 5.8-1 9.1-3.8 2.7-2.9 4.1-6.3 4.1-10.1v-.3zm21.7-155.7l3.5-3.5-4.1-3.8-3.1 3.5c-.8.6-1.8 1-2.8 1.1-1 .1-2-.2-2.8-.8-3.1-1.7-6.3-2.9-9.4-3.8-2.3-.6-3.5-2.1-3.5-4.4v-4.7h-5.7v4.7c-.2 2.3-1.4 3.8-3.5 4.4-3.4.8-6.5 2.1-9.4 3.8-2.1 1.1-4 .9-5.7-.3l-3.5-3.5-3.8 3.8 3.5 3.5c1.3 1.7 1.5 3.6.6 5.7-1.9 2.7-3.3 5.9-4.1 9.4-.4 2.1-1.9 3.3-4.4 3.5h-4.7v5.3h4.7c2.5.2 4 1.5 4.4 3.8.8 3.1 2.2 6.3 4.1 9.4.4.8.6 1.8.5 2.8-.1 1.1-.5 2-1.1 2.8l-3.5 3.1 3.8 4.1 3.5-3.5c1.7-1.7 3.6-1.9 5.7-.6 2.9 1.9 6.1 3.1 9.4 3.8 2.1.8 3.3 2.3 3.5 4.4v5h5.7v-5c0-2.1 1.2-3.6 3.5-4.4 3.6-.6 6.7-1.9 9.4-3.8.8-.6 1.8-.9 2.8-.8 1 .1 2 .6 2.8 1.4l3.1 3.5 4.1-4.1-3.5-3.5c-.8-.6-1.3-1.5-1.3-2.5s.2-2 .6-2.8c1.9-3.1 3.2-6.3 4.1-9.4.6-2.3 2.1-3.6 4.4-3.8h4.7v-5.3h-4.7c-2.3-.2-3.8-1.4-4.4-3.5-.8-3.6-2.2-6.7-4.1-9.4-1-2-.8-3.9.7-5.6zm-51.7-67.6c-.9-.8-1.4-1.9-1.4-3.1V4.7c0-1.3.5-2.4 1.4-3.3s2-1.4 3.1-1.4 2.2.5 3.1 1.4 1.4 2 1.4 3.3v33.6c0 1.3-.5 2.3-1.4 3.1-.9.8-1.9 1.3-3 1.3-1.2.1-2.3-.3-3.2-1.2zm38.6 76.7c3.2 3.4 4.9 7.4 4.9 12.3 0 4.8-1.6 8.9-4.9 12.1-3.3 3.3-7.3 4.9-12.3 4.9-4.9 0-9-1.6-12.1-4.7-3.1-3.1-4.7-7.2-4.7-12.3 0-5 1.6-9.2 4.7-12.4 3.1-3.2 7.2-5 12.3-5.2 4.8.2 8.9 2 12.1 5.3zm-6.3 18.1c1.6-1.6 2.4-3.6 2.4-6s-.8-4.4-2.4-6c-1.6-1.6-3.6-2.4-6-2.4s-4.4.8-6 2.4c-1.6 1.6-2.4 3.6-2.4 6s.8 4.4 2.4 6c1.6 1.6 3.6 2.4 6.1 2.4 2.4 0 4.4-.8 5.9-2.4zm76-89.9c0 1.2-.4 2.1-1.3 3l-23.9 23.9c-.8.8-1.9 1.3-3.1 1.3s-2.3-.5-3.1-1.4c-.8-.9-1.3-2-1.3-3.1s.4-2.1 1.3-3l23.5-24c2.3-1.9 4.5-1.9 6.6 0 .9 1 1.3 2.1 1.3 3.3zm40.2 97.2c.8.9 1.3 2 1.3 3.3-.2 2.7-1.7 4.2-4.4 4.4h-33.6c-2.7-.2-4.2-1.7-4.4-4.4 0-1.3.4-2.4 1.3-3.3.8-.9 1.9-1.4 3.1-1.4H289c1.3-.1 2.3.4 3.1 1.4z" class="st0"/></g></svg>